<svg xmlns="http://www.w3.org/2000/svg" viewBox="0 0 64 64" width="64" height="64">
  <rect width="64" height="64" rx="12" fill="#87ceeb"/>
  <ellipse cx="32" cy="36" rx="12" ry="8" fill="#f5f5f5"/>
  <circle cx="43" cy="28" r="6" fill="#ffffff"/>
  <circle cx="45" cy="27" r="1.3" fill="#222"/>
  <polygon points="49,28 55,30 49,31" fill="#e8a020"/>
  <circle cx="51" cy="30" r="0.8" fill="#cc3333"/>
  <path d="M28,33 Q16,22 7,18 Q14,25 19,33 Z" fill="#8a9bae"/>
  <path d="M36,33 Q41,24 38,17 Q38,25 36,33 Z" fill="#8a9bae"/>
  <path d="M7,18 Q5,17 4,15" stroke="#5a6a7a" stroke-width="2" fill="none" stroke-linecap="round"/>
  <path d="M38,17 Q38,15 37,13" stroke="#5a6a7a" stroke-width="2" fill="none" stroke-linecap="round"/>
  <polygon points="19,38 12,42 14,36" fill="#9aa8b8"/>
</svg>
